<svg id="Swiss_Banking_Logo" data-name="Swiss Banking Logo" xmlns="http://www.w3.org/2000/svg" viewBox="0 0 1000 148.02"><defs><style>.cls-1{fill:#263238;}.cls-2{fill:#ec0b18;}</style></defs><path class="cls-1" d="M122.75,51.68c14.64,5.64,30.34,14.17,30.34,33.54,0,20.27-16.31,33.68-37.35,33.68-21.49,0-36.59-13.71-38.57-34.45H92.42c1.83,14.64,10.82,22.11,23.78,22.11,12.65,0,22.41-6.41,22.41-19.21,0-12.35-9.91-17.84-22.41-22.71L106.75,61C93.48,56,80.37,46.34,80.37,29.73,80.37,12,95.31,0,115.44,0c19.36,0,32,12.5,35.51,30.49H135.86C132.66,18,125,12.81,114.22,12.81c-11.44,0-19.37,6.24-19.37,15.09,0,10.21,6.56,15.55,18.45,20.12Z"/><path class="cls-1" d="M190.74,96.19l22.1-59,21.65,58.69L251.41,40.7H263.6l-24.08,76.22h-9.76l-17.83-48-18,48H183.88L159.79,40.7h13.87Z"/><path class="cls-1" d="M273.51,9.3a9.3,9.3,0,1,1,18.59,0,9.3,9.3,0,1,1-18.59,0Zm2.74,107.62V40.7H290v76.22Z"/><path class="cls-1" d="M346.83,59.91c-2.14-7.62-7.47-10.67-14.49-10.67-6.09,0-12.34,3-12.34,9.76,0,5.64,4.87,9.29,12.5,11.58l6.71,2c11.58,3.36,23,10.22,23,23.33,0,13.87-11.28,23-27.13,23-16.47,0-28-9.6-29.58-26.06h12.2c1.52,10.21,7.47,15.39,17.53,15.39,7.47,0,14.33-3.65,14.33-10.51,0-7.63-6.55-10.83-14.79-13.27l-6.7-2C315.42,78.66,307.8,70.73,307.8,59s11.28-20,25.46-20c13.11,0,23.48,7,25.76,20.88Z"/><path class="cls-1" d="M413,59.91c-2.13-7.62-7.47-10.67-14.48-10.67-6.1,0-12.35,3-12.35,9.76,0,5.64,4.88,9.29,12.5,11.58l6.71,2c11.58,3.36,23,10.22,23,23.33,0,13.87-11.28,23-27.14,23-16.46,0-28.05-9.6-29.57-26.06h12.19c1.53,10.21,7.47,15.39,17.54,15.39,7.47,0,14.32-3.65,14.32-10.51,0-7.63-6.55-10.83-14.78-13.27l-6.71-2C381.58,78.66,374,70.73,374,59s11.28-20,25.45-20c13.11,0,23.48,7,25.77,20.88Z"/><path class="cls-1" d="M525,55.34c16.31,3.5,24.54,15.85,24.54,28.2,0,16.77-10.67,33.38-39.79,33.38H475.63V2.59H505.5c29.12,0,39.79,12.65,39.79,29C545.29,42.38,539.19,52,525,55.34ZM506,50.61c14.79,0,25-3.66,25-17.84s-10.21-17.83-25-17.83H489.65V50.61Zm-16.31,54h20.58c14.79,0,25-6.41,25-20.58s-10.21-21-25-21H489.65Z"/><path class="cls-1" d="M609.46,61c0-8.69-7.92-11.59-16.46-11.59-10.67,0-19,4.27-26.52,12.2V48.48C573.33,43.14,582,39,594.68,39c14.78,0,28.5,5.18,28.5,24.39v53.5H609.46V98c-2.43,12-9.75,20.88-24.08,20.88-14.79,0-25.46-10.06-25.46-22.86,0-13.26,11.13-20.43,27-23.78,14.79-3.05,20.43-5.49,22.56-8.84Zm0,12.19-20.58,7c-9,3-14.33,6.86-14.33,14.64,0,8.84,5.8,14.63,15.4,14.63,9.76,0,19.67-8.38,19.51-25.3Z"/><path class="cls-1" d="M657.48,57c3.51-11,12.35-18,24.69-18,16.16,0,25.62,8.84,25.62,27.74v50.15H694.07V69.51c0-13.72-6.71-20.27-17.38-20.27-10.83,0-19.21,6.1-19.21,19.21v48.47H643.76V40.7h13.72Z"/><path class="cls-1" d="M742.23,116.92H728.51V2.59h13.72V75.76L778.82,40.7h15.24L757.78,75.15l41.92,41.77H781.41L742.23,78.2Z"/><path class="cls-1" d="M805,9.3a9.3,9.3,0,1,1,18.6,0,9.3,9.3,0,1,1-18.6,0Zm2.75,107.62V40.7H821.5v76.22Z"/><path class="cls-1" d="M856.86,57c3.51-11,12.35-18,24.7-18,16.16,0,25.61,8.84,25.61,27.74v50.15H893.45V69.51c0-13.72-6.71-20.27-17.38-20.27-10.82,0-19.21,6.1-19.21,19.21v48.47H843.14V40.7h13.72Z"/><path class="cls-1" d="M940.55,91.46c-9.61-4.42-16.31-12.95-16.31-24.54C924.24,49.54,939.33,39,956.1,39a38.75,38.75,0,0,1,11.28,1.67H1000v8.23H980.94a25.2,25.2,0,0,1,7,18c0,17.38-15.09,27.9-31.86,27.9A36.71,36.71,0,0,1,946,93.45c-5.48,1.22-9.75,4.42-9.75,7.77s2.44,6.4,10.82,6l14.94-.92c21.5-1.37,32.17,4.42,32.17,17.69,0,14.48-14.94,24.08-39.64,24.08-13.26,0-23.78-3.2-31.86-7.47V127.29a55.5,55.5,0,0,0,32.17,9.45c15.7,0,25.15-3.81,25.15-10.52,0-5.79-4.42-9.14-18.6-8.23l-13.26.91c-16.46,1.07-22.26-6.09-22.41-12.8C925.61,99.7,932.16,93.9,940.55,91.46Zm-2.29-24.54c0,13,6.4,20.12,17.84,20.12s17.83-7.16,17.83-20.12S967.53,46.8,956.1,46.8,938.26,54,938.26,66.92Z"/><circle class="cls-2" cx="21.61" cy="21.61" r="21.61"/></svg>